<svg xmlns="http://www.w3.org/2000/svg" viewBox="0 0 512 512" preserveAspectRatio="xMidYMid meet">
  <rect width="512" height="512" fill="#030405"/>
  <rect x="160" y="40" width="192" height="432" rx="20" fill="#0b0c0e"/>
  <g>
    <rect x="196" y="52" width="120" height="44" rx="8" fill="#3a3f47"/>
    <rect x="196" y="104" width="120" height="44" rx="8" fill="#33383f"/>
    <rect x="196" y="156" width="120" height="44" rx="8" fill="#3a3f47"/>
    <rect x="196" y="208" width="120" height="44" rx="8" fill="#33383f"/>
    <rect x="196" y="260" width="120" height="44" rx="8" fill="#3a3f47"/>
    <rect x="196" y="312" width="120" height="44" rx="8" fill="#33383f"/>
    <rect x="196" y="364" width="120" height="44" rx="8" fill="#3a3f47"/>
    <rect x="196" y="416" width="120" height="44" rx="8" fill="#33383f"/>
  </g>
  <g fill="#1b1e23">
    <ellipse cx="256" cy="98" rx="60" ry="7"/><ellipse cx="256" cy="150" rx="60" ry="7"/>
    <ellipse cx="256" cy="202" rx="60" ry="7"/><ellipse cx="256" cy="254" rx="60" ry="7"/>
    <ellipse cx="256" cy="306" rx="60" ry="7"/><ellipse cx="256" cy="358" rx="60" ry="7"/>
    <ellipse cx="256" cy="410" rx="60" ry="7"/>
  </g>
  <rect x="188" y="20" width="10" height="472" rx="5" fill="#0a0b0d" opacity="0.6"/>
</svg>
